<?xml version="1.0" standalone="no"?>
<!DOCTYPE svg PUBLIC "-//W3C//DTD SVG 20010904//EN"
 "http://www.w3.org/TR/2001/REC-SVG-20010904/DTD/svg10.dtd">
<svg version="1.0" xmlns="http://www.w3.org/2000/svg"
 width="218.000000pt" height="50.000000pt" viewBox="0 0 218.000000 50.000000"
 preserveAspectRatio="xMidYMid meet">

<g transform="translate(0.000000,50.000000) scale(0.100000,-0.100000)"
fill="#000000" stroke="none">
<path d="M190 421 l25 -7 0 -154 0 -155 -30 -6 c-16 -4 54 -7 158 -8 l187 -1
0 80 c0 44 -2 80 -4 80 -2 0 -18 -22 -36 -50 -44 -68 -84 -100 -126 -100 l-34
0 0 138 c0 164 3 180 39 185 14 2 -26 4 -89 5 -63 0 -104 -3 -90 -7z"/>
<path d="M680 418 c-76 -22 -120 -79 -120 -158 0 -58 26 -107 73 -138 34 -22
51 -26 112 -26 62 0 78 3 115 28 89 59 104 172 32 244 -56 56 -131 73 -212 50z
m106 -19 c16 -18 19 -37 19 -139 0 -102 -3 -121 -19 -139 -27 -29 -62 -27 -83
6 -26 39 -26 227 0 266 21 33 56 35 83 6z"/>
<path d="M1097 416 c-74 -27 -107 -76 -107 -159 0 -92 57 -154 150 -162 38 -4
49 -3 35 4 -44 19 -50 39 -50 152 0 93 3 111 21 135 11 16 32 32 45 35 19 6
15 7 -16 8 -22 0 -57 -6 -78 -13z"/>
<path d="M1430 421 l25 -7 0 -154 0 -154 -25 -7 c-14 -4 27 -7 90 -7 63 1 105
3 92 5 -33 6 -42 40 -42 157 0 140 6 164 39 169 14 2 -26 4 -89 5 -63 0 -104
-3 -90 -7z"/>
<path d="M1657 423 c15 -3 69 -63 153 -169 106 -133 135 -164 155 -164 24 0
25 3 25 61 l0 61 -87 109 -86 109 -91 -1 c-50 -1 -81 -4 -69 -6z"/>
<path d="M1948 423 c13 -3 28 -16 35 -30 l12 -26 5 24 c4 16 15 26 35 30 19 4
4 7 -40 6 -38 0 -60 -2 -47 -4z"/>
<path d="M1314 409 c-3 -6 -17 -8 -31 -4 l-25 6 26 -33 c14 -19 29 -45 35 -58
8 -21 10 -14 10 38 1 62 -2 72 -15 51z"/>
<path d="M1190 241 c23 -7 25 -11 25 -73 l0 -66 27 14 c35 18 52 18 68 -1 22
-27 29 -16 32 52 3 62 5 68 28 74 14 4 -27 7 -90 7 -63 0 -104 -3 -90 -7z"/>
<path d="M1702 123 c-7 -12 -24 -24 -39 -26 -16 -2 6 -4 47 -4 44 -1 63 2 46
6 -16 3 -32 15 -36 26 -7 19 -7 19 -18 -2z"/>
</g>
</svg>
